<svg id="Layer_1" data-name="Layer 1" xmlns="http://www.w3.org/2000/svg" viewBox="0 0 801.8193 118.8105"><defs><style>.cls-1{fill:#1c7a5b;}.cls-2{fill:#fff;}</style></defs><title>Exterior_horizontal_stack</title><path class="cls-1" d="M.8135,90.8926h9.917v-9.917h5.9218v9.917h9.917v5.9219h-9.917v9.9169H10.7305V96.8145H.8135Z"/><path class="cls-2" d="M51.76,97.0967a11.9649,11.9649,0,0,1,.893-4.7,11.1136,11.1136,0,0,1,2.4439-3.6426,10.86,10.86,0,0,1,3.7129-2.373,13.4839,13.4839,0,0,1,9.4,0,10.8688,10.8688,0,0,1,3.7129,2.373,11.1291,11.1291,0,0,1,2.4439,3.6426,12.8146,12.8146,0,0,1,0,9.4,11.13,11.13,0,0,1-2.4439,3.6426,10.8569,10.8569,0,0,1-3.7129,2.373,13.4689,13.4689,0,0,1-9.4,0,10.8483,10.8483,0,0,1-3.7129-2.373,11.1146,11.1146,0,0,1-2.4439-3.6426A11.9621,11.9621,0,0,1,51.76,97.0967Zm3.9482,0a9.3235,9.3235,0,0,0,.54,3.22,7.4307,7.4307,0,0,0,4.042,4.3242,8.4952,8.4952,0,0,0,6.44,0,7.4307,7.4307,0,0,0,4.042-4.3242,9.86,9.86,0,0,0,0-6.4394,7.4257,7.4257,0,0,0-4.042-4.3233,8.4828,8.4828,0,0,0-6.44,0,7.4257,7.4257,0,0,0-4.042,4.3233A9.3235,9.3235,0,0,0,55.7085,97.0967Z"/><path class="cls-2" d="M103.2725,102.8779q0,1.5045.0937,2.8194.0938,1.3169.0938,2.3974H99.9824q0-.892-.0469-1.7861-.0468-.892-.0468-1.833h-.0948a6.3451,6.3451,0,0,1-1.0566,1.5508,7.618,7.618,0,0,1-1.6221,1.34,8.6523,8.6523,0,0,1-2.1152.94,8.8107,8.8107,0,0,1-2.5371.3526,9.6579,9.6579,0,0,1-3.7373-.6582,7.0057,7.0057,0,0,1-2.6084-1.833,7.4177,7.4177,0,0,1-1.5274-2.8438,12.7936,12.7936,0,0,1-.4936-3.6426V86.0986h3.666V99.3057a7.0245,7.0245,0,0,0,1.2222,4.3711,4.4852,4.4852,0,0,0,3.8066,1.5976,7.154,7.154,0,0,0,3.0791-.61,5.4669,5.4669,0,0,0,2.1153-1.7393,7.8152,7.8152,0,0,0,1.2216-2.6787,13.7828,13.7828,0,0,0,.3994-3.4316V86.0986h3.6661Z"/><path class="cls-2" d="M125.4092,89.2012h-6.4863v10.997q0,1.0825.0468,1.9981a4.137,4.137,0,0,0,.376,1.5976,2.518,2.518,0,0,0,.9873,1.0811,3.6441,3.6441,0,0,0,1.88.3994,7.6042,7.6042,0,0,0,1.6455-.1875,6.885,6.885,0,0,0,1.5977-.5644l.1416,3.3369a8.4011,8.4011,0,0,1-2.0918.6113,13.6432,13.6432,0,0,1-2.1856.1885,7.9442,7.9442,0,0,1-3.1494-.5176,4.2754,4.2754,0,0,1-1.833-1.457,5.4152,5.4152,0,0,1-.8691-2.3262,20.5407,20.5407,0,0,1-.212-3.0791V89.2012h-4.7939V86.0986h4.7939V79.8477h3.6661v6.2509h6.4863Z"/><path class="cls-2" d="M151.3535,104.1934h-.0947a8.3849,8.3849,0,0,1-3.2666,3.1728,10.1813,10.1813,0,0,1-5.1934,1.293,10.8369,10.8369,0,0,1-4.3242-.87,10.5557,10.5557,0,0,1-3.501-2.42,11.3448,11.3448,0,0,1-2.3261-3.666,12.9513,12.9513,0,0,1,0-9.2119,11.1259,11.1259,0,0,1,2.35-3.666,10.5173,10.5173,0,0,1,3.6425-2.4209,12.44,12.44,0,0,1,4.7237-.8691,9.7818,9.7818,0,0,1,4.3945.9863,10.8234,10.8234,0,0,1,3.501,2.7734h.0947V72.5625h3.6651v35.5322h-3.6651Zm0-7.0967a9.3213,9.3213,0,0,0-.541-3.22,7.4216,7.4216,0,0,0-4.042-4.3233,8.4825,8.4825,0,0,0-6.4394,0,7.43,7.43,0,0,0-4.042,4.3233,9.8669,9.8669,0,0,0,0,6.4394,7.4347,7.4347,0,0,0,4.042,4.3242,8.4949,8.4949,0,0,0,6.4394,0,7.4266,7.4266,0,0,0,4.042-4.3242A9.3213,9.3213,0,0,0,151.3535,97.0967Z"/><path class="cls-2" d="M163.666,97.0967a11.9651,11.9651,0,0,1,.8936-4.7,11.12,11.12,0,0,1,2.4433-3.6426,10.8611,10.8611,0,0,1,3.7129-2.373,13.4841,13.4841,0,0,1,9.4,0,10.8707,10.8707,0,0,1,3.7129,2.373,11.1223,11.1223,0,0,1,2.4443,3.6426,12.8213,12.8213,0,0,1,0,9.4,11.1234,11.1234,0,0,1-2.4443,3.6426,10.8588,10.8588,0,0,1-3.7129,2.373,13.4692,13.4692,0,0,1-9.4,0,10.8493,10.8493,0,0,1-3.7129-2.373,11.1208,11.1208,0,0,1-2.4433-3.6426A11.9623,11.9623,0,0,1,163.666,97.0967Zm3.9483,0a9.3211,9.3211,0,0,0,.54,3.22,7.4347,7.4347,0,0,0,4.042,4.3242,8.4949,8.4949,0,0,0,6.4394,0,7.4266,7.4266,0,0,0,4.042-4.3242,9.85,9.85,0,0,0,0-6.4394,7.4216,7.4216,0,0,0-4.042-4.3233,8.4825,8.4825,0,0,0-6.4394,0,7.43,7.43,0,0,0-4.042,4.3233A9.3211,9.3211,0,0,0,167.6143,97.0967Z"/><path class="cls-2" d="M194.7334,97.0967a11.9649,11.9649,0,0,1,.8926-4.7,11.1068,11.1068,0,0,1,2.4443-3.6426,10.8664,10.8664,0,0,1,3.7119-2.373,13.4841,13.4841,0,0,1,9.4,0,10.8516,10.8516,0,0,1,3.7129,2.373,11.1093,11.1093,0,0,1,2.4453,3.6426,12.8213,12.8213,0,0,1,0,9.4,11.11,11.11,0,0,1-2.4453,3.6426,10.84,10.84,0,0,1-3.7129,2.373,13.4692,13.4692,0,0,1-9.4,0,10.8545,10.8545,0,0,1-3.7119-2.373,11.1079,11.1079,0,0,1-2.4443-3.6426A11.9621,11.9621,0,0,1,194.7334,97.0967Zm3.9482,0a9.3211,9.3211,0,0,0,.54,3.22,7.429,7.429,0,0,0,4.041,4.3242,8.4949,8.4949,0,0,0,6.4394,0,7.4242,7.4242,0,0,0,4.043-4.3242,9.8842,9.8842,0,0,0,0-6.4394,7.4192,7.4192,0,0,0-4.043-4.3233,8.4825,8.4825,0,0,0-6.4394,0,7.424,7.424,0,0,0-4.041,4.3233A9.3211,9.3211,0,0,0,198.6816,97.0967Z"/><path class="cls-2" d="M227.0684,91.3154q0-1.5028-.0938-2.8193t-.0937-2.3975h3.4775q0,.8935.0478,1.7862.0454.8936.0469,1.833h.0938a6.3051,6.3051,0,0,1,1.0576-1.5508,7.6441,7.6441,0,0,1,1.6211-1.34,8.6544,8.6544,0,0,1,2.1152-.9394,8.7783,8.7783,0,0,1,2.5381-.3525,6.0948,6.0948,0,0,1,.752.0468,3.33,3.33,0,0,1,.7519.1875l-.2353,3.7129a6.8539,6.8539,0,0,0-1.9737-.2812,5.57,5.57,0,0,0-4.9111,2.1845,10.3123,10.3123,0,0,0-1.5283,5.9932v10.7158h-3.666Z"/><path class="cls-2" d="M263.4463,102.3135a9.2271,9.2271,0,0,0,2.373,2.1621,6.1127,6.1127,0,0,0,3.2666.7988,8.1247,8.1247,0,0,0,1.7159-.1875,5.1408,5.1408,0,0,0,1.5742-.6113,3.4945,3.4945,0,0,0,1.1279-1.0576,2.6872,2.6872,0,0,0,.4229-1.5274,2.47,2.47,0,0,0-.3995-1.457,3.49,3.49,0,0,0-1.0576-.9629,5.9549,5.9549,0,0,0-1.5039-.6348q-.8452-.2343-1.7392-.4228-1.55-.3282-2.961-.752a9.6705,9.6705,0,0,1-2.4668-1.1045,5.201,5.201,0,0,1-1.6924-1.7627,5.4257,5.4257,0,0,1-.6347-2.7734,5.5424,5.5424,0,0,1,.7051-2.8193,6.1207,6.1207,0,0,1,1.88-2.0215A9.2043,9.2043,0,0,1,266.69,85.958a10.7207,10.7207,0,0,1,3.0078-.4228,10.0957,10.0957,0,0,1,4.3476.9394,6.7793,6.7793,0,0,1,3.125,3.0547l-3.0547,2.0215a5.6815,5.6815,0,0,0-1.8564-1.9033,5.1316,5.1316,0,0,0-2.7969-.7286,6.482,6.482,0,0,0-1.5273.1875,4.7845,4.7845,0,0,0-1.3867.5645,3.316,3.316,0,0,0-1.0108.9629,2.3279,2.3279,0,0,0-.3994,1.34,1.7177,1.7177,0,0,0,.4473,1.1983,3.9308,3.9308,0,0,0,1.2216.87,10.6517,10.6517,0,0,0,1.7862.6582,21.425,21.425,0,0,0,2.0908.47,21.0194,21.0194,0,0,1,2.7734.7285,8.0352,8.0352,0,0,1,2.3028,1.1983,5.3359,5.3359,0,0,1,1.5517,1.88,6.1606,6.1606,0,0,1,.5635,2.7734,6.3449,6.3449,0,0,1-.752,3.1953,6.2329,6.2329,0,0,1-1.997,2.1387,8.7786,8.7786,0,0,1-2.82,1.1992,13.8515,13.8515,0,0,1-3.22.376,12.3915,12.3915,0,0,1-4.8642-.87,8.822,8.822,0,0,1-3.69-3.22Z"/><path class="cls-2" d="M285.959,86.0986h3.666v3.1963h.0938a10.8171,10.8171,0,0,1,3.5019-2.7734,9.776,9.776,0,0,1,4.3945-.9863,12.4477,12.4477,0,0,1,4.7237.8691,10.5322,10.5322,0,0,1,3.6416,2.4209,11.1476,11.1476,0,0,1,2.3506,3.666,12.9656,12.9656,0,0,1,0,9.2119,11.38,11.38,0,0,1-2.3262,3.666,10.56,10.56,0,0,1-3.502,2.42,10.8362,10.8362,0,0,1-4.3242.87,10.1832,10.1832,0,0,1-5.1933-1.293,8.3842,8.3842,0,0,1-3.2666-3.1728h-.0938v14.6171h-3.666Zm3.666,10.9981a9.3235,9.3235,0,0,0,.54,3.22,7.4347,7.4347,0,0,0,4.042,4.3242,8.4952,8.4952,0,0,0,6.44,0,7.4266,7.4266,0,0,0,4.042-4.3242,9.8686,9.8686,0,0,0,0-6.4394,7.4216,7.4216,0,0,0-4.042-4.3233,8.4828,8.4828,0,0,0-6.44,0,7.43,7.43,0,0,0-4.042,4.3233A9.3235,9.3235,0,0,0,289.625,97.0967Z"/><path class="cls-2" d="M317.7305,88.9189a10.335,10.335,0,0,1,4.0185-2.5615,14.0883,14.0883,0,0,1,4.7237-.8222q4.8867,0,7.05,2.3027,2.1606,2.3027,2.1621,7.0029v9.4473q0,.94.0937,1.95t.2344,1.8564h-3.5244a7.6526,7.6526,0,0,1-.2119-1.6689q-.0236-.9156-.0235-1.6211h-.0937a8.61,8.61,0,0,1-2.8906,2.7734,8.3336,8.3336,0,0,1-4.3477,1.0811,11.4867,11.4867,0,0,1-3.1719-.4238,7.8894,7.8894,0,0,1-2.5849-1.2452,6.1322,6.1322,0,0,1-1.7627-2.0449,5.8431,5.8431,0,0,1-.6582-2.8193,6.1223,6.1223,0,0,1,1.41-4.2774,8.545,8.545,0,0,1,3.501-2.3027,17.258,17.258,0,0,1,4.5127-.94q2.42-.1875,4.4414-.1875h1.41V93.76a4.4957,4.4957,0,0,0-1.4336-3.6192,6.0125,6.0125,0,0,0-4.0186-1.2217,10.7607,10.7607,0,0,0-3.5019.587,8.42,8.42,0,0,0-3.0313,1.81Zm10.622,8.6006a13.1569,13.1569,0,0,0-5.5937.9873,3.3519,3.3519,0,0,0-2.0674,3.2432,3.1936,3.1936,0,0,0,1.3867,2.9375,6.38,6.38,0,0,0,3.4541.8691,6.7533,6.7533,0,0,0,2.7969-.54,5.8834,5.8834,0,0,0,1.9971-1.4336,6.1791,6.1791,0,0,0,1.2217-2.0918,8.5552,8.5552,0,0,0,.4707-2.5615V97.52Z"/><path class="cls-2" d="M361.2051,91.5977a7.434,7.434,0,0,0-2.5381-2.044,7.0289,7.0289,0,0,0-3.0078-.6348,7.82,7.82,0,0,0-3.2432.6348,6.2429,6.2429,0,0,0-2.3262,1.7617,7.85,7.85,0,0,0-1.3867,2.6084,10.4267,10.4267,0,0,0-.47,3.1729,9.1834,9.1834,0,0,0,.54,3.1728,8.4245,8.4245,0,0,0,1.5039,2.6084,6.8019,6.8019,0,0,0,2.3272,1.7627,7.1516,7.1516,0,0,0,3.0547.6338,6.4967,6.4967,0,0,0,5.5928-2.7256l2.7265,2.585a9.5686,9.5686,0,0,1-3.7607,2.6787,12.95,12.95,0,0,1-9.2119,0,10.0427,10.0427,0,0,1-3.5948-2.3965,11.0277,11.0277,0,0,1-2.3037-3.666,12.7465,12.7465,0,0,1-.8222-4.6533,12.6077,12.6077,0,0,1,.8222-4.6055,10.816,10.816,0,0,1,2.3272-3.666,10.6158,10.6158,0,0,1,3.5947-2.4209,11.9589,11.9589,0,0,1,4.63-.8691,12.7048,12.7048,0,0,1,4.63.8457,10.12,10.12,0,0,1,3.83,2.6318Z"/><path class="cls-2" d="M391.0029,104.1a11.1645,11.1645,0,0,1-4.3242,3.5488,13.72,13.72,0,0,1-5.4521,1.0108,11.355,11.355,0,0,1-4.6524-.917,10.4686,10.4686,0,0,1-3.5019-2.4678,10.8139,10.8139,0,0,1-2.209-3.666,13.0134,13.0134,0,0,1-.7754-4.5117,12.6167,12.6167,0,0,1,.8457-4.6768,10.8357,10.8357,0,0,1,2.3506-3.666,10.55,10.55,0,0,1,3.5713-2.373,11.7965,11.7965,0,0,1,4.5127-.8457,11.2233,11.2233,0,0,1,4.2295.7753,9.1515,9.1515,0,0,1,3.3134,2.2559,10.1481,10.1481,0,0,1,2.1387,3.6191,14.624,14.624,0,0,1,.752,4.8643v1.1748H374.0361a7.6915,7.6915,0,0,0,.6817,2.7022,7.8219,7.8219,0,0,0,1.5273,2.2568,7.0349,7.0349,0,0,0,2.209,1.5273,6.7457,6.7457,0,0,0,2.7725.5635,8.7577,8.7577,0,0,0,4.042-.8457,9.1763,9.1763,0,0,0,2.9609-2.4912Zm-3.1494-8.9766a6.32,6.32,0,0,0-1.833-4.5126,6.5815,6.5815,0,0,0-4.7939-1.6915,6.7726,6.7726,0,0,0-7.1905,6.2041Z"/><path class="cls-2" d="M401.1084,102.3135a9.2271,9.2271,0,0,0,2.373,2.1621,6.1127,6.1127,0,0,0,3.2666.7988,8.1247,8.1247,0,0,0,1.7159-.1875,5.14,5.14,0,0,0,1.5742-.6113,3.4945,3.4945,0,0,0,1.1279-1.0576,2.6872,2.6872,0,0,0,.4229-1.5274,2.4708,2.4708,0,0,0-.3994-1.457,3.49,3.49,0,0,0-1.0577-.9629,5.9534,5.9534,0,0,0-1.5039-.6348q-.8451-.2343-1.7392-.4228-1.55-.3282-2.961-.752a9.6705,9.6705,0,0,1-2.4668-1.1045,5.2,5.2,0,0,1-1.6923-1.7627,5.4247,5.4247,0,0,1-.6348-2.7734,5.5424,5.5424,0,0,1,.7051-2.8193,6.12,6.12,0,0,1,1.88-2.0215,9.2037,9.2037,0,0,1,2.6328-1.2217,10.7207,10.7207,0,0,1,3.0078-.4228,10.0957,10.0957,0,0,1,4.3476.9394,6.7793,6.7793,0,0,1,3.125,3.0547l-3.0547,2.0215a5.6815,5.6815,0,0,0-1.8564-1.9033,5.1316,5.1316,0,0,0-2.7969-.7286,6.482,6.482,0,0,0-1.5273.1875,4.7845,4.7845,0,0,0-1.3867.5645,3.316,3.316,0,0,0-1.0108.9629,2.3279,2.3279,0,0,0-.3994,1.34,1.7177,1.7177,0,0,0,.4473,1.1983,3.93,3.93,0,0,0,1.2217.87,10.65,10.65,0,0,0,1.7861.6582,21.425,21.425,0,0,0,2.0908.47,21.0194,21.0194,0,0,1,2.7734.7285,8.0352,8.0352,0,0,1,2.3028,1.1983,5.3359,5.3359,0,0,1,1.5517,1.88,6.1606,6.1606,0,0,1,.5635,2.7734,6.3459,6.3459,0,0,1-.7519,3.1953,6.2342,6.2342,0,0,1-1.9971,2.1387,8.7786,8.7786,0,0,1-2.82,1.1992,13.8515,13.8515,0,0,1-3.22.376,12.3915,12.3915,0,0,1-4.8642-.87,8.822,8.822,0,0,1-3.69-3.22Z"/><path class="cls-2" d="M0,.3994H11.5723V29.0166H37.7388v9.4063H0Z"/><path class="cls-2" d="M86.36.3994V9.0078H55.6333v6.5557h28.96v7.5244H55.6333v6.7275h31.126v8.6075H44.2319V.3994Z"/><path class="cls-2" d="M114.5713.3994h15.5058l20.8077,38.0235H138.23L134.4668,31.64H109.9541l-3.6484,6.7833H93.1943ZM130.42,23.7148l-8.209-15.163-8.0957,15.163Z"/><path class="cls-2" d="M156.5781.3994h32.836c8.038,0,11.8007.9121,14.4228,3.5342,2.1094,2.0527,2.9649,4.4473,3.3633,9.292.1143,1.7676.2285,4.39.2285,6.2139a72.246,72.246,0,0,1-.57,9.5205,10.2109,10.2109,0,0,1-7.98,8.8925,34.7058,34.7058,0,0,1-7.9248.57h-34.375Zm30.9551,28.96c3.1357,0,3.3633,0,4.7314-.4561,2.793-.8554,3.5342-2.8506,3.5342-9.4062,0-7.9815-1.3681-9.6348-8.0381-9.6348H168.15V29.3594Z"/><path class="cls-2" d="M259.0693.3994V9.0078H228.3428v6.5557h28.959v7.5244h-28.959v6.7275h31.125v8.6075H216.9414V.3994Z"/><path class="cls-2" d="M268.4121.3994H301.19c6.7266,0,9.6914.57,11.8575,2.3945,2.2236,1.7666,3.25,5.0166,3.25,10.1475,0,7.0684-1.711,9.8613-6.5567,10.9453,4.7324.7979,6.1572,2.793,6.043,8.5508v5.9854H304.041V33.6914c-.0566-4.1045-1.1972-4.96-6.3848-4.8457H279.9268v9.5772H268.4121ZM297.998,19.5537c5.587,0,6.67-.6836,6.67-4.4463,0-2.4512-.2276-3.4775-.9688-4.2754-.8554-.9121-1.8242-1.083-5.3017-1.083H279.9268v9.8047Z"/><path class="cls-2" d="M382.9863.3994V9.0078H352.26v6.5557h28.959v7.5244H352.26v6.7275h31.125v8.6075H340.8584V.3994Z"/><path class="cls-2" d="M409.26,19.44,391.3018.3994H406.58l12.1992,13.625L431.207.3994h14.8789l-17.9,18.8692,19.0977,19.1543H431.5488l-12.77-13.6817L405.9531,38.4229h-15.62Z"/><path class="cls-2" d="M469.6787,9.8057H452.7471V.3994h45.4345V9.8057H481.251V38.4229H469.6787Z"/><path class="cls-2" d="M548.0557.3994V9.0078H517.3291v6.5557h28.959v7.5244h-28.959v6.7275h31.125v8.6075H505.9277V.3994Z"/><path class="cls-2" d="M557.3984.3994h32.7784c6.7265,0,9.6914.57,11.8574,2.3945,2.2236,1.7666,3.25,5.0166,3.25,10.1475,0,7.0684-1.711,9.8613-6.5567,10.9453,4.7325.7979,6.1573,2.793,6.043,8.5508v5.9854H593.0273V33.6914c-.0566-4.1045-1.1972-4.96-6.3847-4.8457h-17.73v9.5772H557.3984Zm29.586,19.1543c5.5869,0,6.67-.6836,6.67-4.4463,0-2.4512-.2275-3.4775-.9688-4.2754-.8554-.9121-1.8242-1.083-5.3017-1.083H568.9131v9.8047Z"/><path class="cls-2" d="M615.0254.3994h11.5723V38.4229H615.0254Z"/><path class="cls-2" d="M678.1865.57c5.8721,1.083,8.7227,4.1045,9.52,10.2041a78.3218,78.3218,0,0,1,.3418,9.2354c0,9.1777-.9687,12.8838-4.2187,15.5625-2.28,1.9384-5.4727,2.8506-11.002,3.0791-2.0527.1132-7.126.1709-10.831.1709-9.0645,0-13.6817-.1709-15.9619-.627-4.2188-.7412-6.67-2.3379-8.0957-5.1308-1.4815-2.793-1.8243-5.587-1.8243-13.91,0-6.3848.1143-7.98.7989-10.5459,1.083-4.0479,3.3056-6.2139,7.581-7.4678C647.6885.2285,651.165,0,661.1982,0,672.1436,0,675.5068.1143,678.1865.57Zm-28.39,10.0908c-1.5391,1.1963-1.9951,3.0782-1.9951,8.5508,0,5.5869.456,7.6387,1.8818,8.836,1.5391,1.2539,3.42,1.4824,12.1416,1.4824,9.9766,0,12.0293-.3428,13.34-2.167,1.083-1.3682,1.3682-3.3057,1.3682-8.38,0-9.5772-.1709-9.69-14.4228-9.69C653.6162,9.293,651.2793,9.5771,649.7969,10.6611Z"/><path class="cls-2" d="M697.5615.3994H730.34c6.7276,0,9.6914.57,11.8575,2.3945,2.2236,1.7666,3.25,5.0166,3.25,10.1475,0,7.0684-1.711,9.8613-6.5557,10.9453,4.7314.7979,6.1563,2.793,6.042,8.5508v5.9854H733.19V33.6914c-.0566-4.1045-1.1972-4.96-6.3847-4.8457h-17.73v9.5772H697.5615Zm29.586,19.1543c5.5869,0,6.67-.6836,6.67-4.4463,0-2.4512-.2276-3.4775-.9688-4.2754-.8554-.9121-1.8242-1.083-5.3017-1.083H709.0762v9.8047Z"/><path class="cls-2" d="M765.8477,26.28c.1142,2.623.3994,3.25,1.7675,3.7627.8545.3418,4.1045.57,7.753.57,13.3964,0,14.9922-.3994,14.9922-3.5342A3.0159,3.0159,0,0,0,788.4229,24c-1.2549-.3984-1.2549-.3984-7.24-.4561H770.6934c-7.0118,0-9.919-.3984-12.37-1.6533-2.7363-1.4248-3.9912-4.4463-3.9912-9.6338,0-6.8408,1.9385-9.748,7.4112-11.0595,3.0781-.7979,7.5254-1.083,15.8476-1.083,13.34,0,16.418.3418,19.1543,2.1093,2.6231,1.7676,3.4776,4.1045,3.4776,9.8057H788.9355c0-3.3066-1.14-3.7627-8.6084-3.7627-3.705,0-8.665.1143-10.4892.2275-3.0781.2286-4.1045,1.0264-4.1045,3.1924a2.8571,2.8571,0,0,0,2.4512,3.0215c.6845.1709.9121.2285,4.6748.2852h10.7744c1.0264,0,6.1572.1709,8.0947.2851,7.24.3418,10.0908,3.5342,10.0908,11.1729,0,7.0127-2.0527,10.0908-7.6386,11.2881-2.8506.6269-8.4942.9687-16.7608.9687-13.1679,0-16.0752-.2851-19.4394-1.9951-2.3369-1.1406-3.5342-4.0479-3.5342-8.5508,0-.3428,0-1.083.0566-1.8818Z"/></svg>